<svg id="Warstwa_1" data-name="Warstwa 1" xmlns="http://www.w3.org/2000/svg" viewBox="0 0 30 30">
  <defs>
    <style>
      .cls-1 {
        fill: #865439;
      }

      .cls-2 {
        fill: #fff;
      }
    </style>
  </defs>
  <path class="cls-1" d="M28.922,16.12,22.852,4.763a.658.658,0,0,0-.895-.247L7.28,12.361l5.728,10.717a.773.773,0,0,1-.343,1.038l-.883.472a.774.774,0,0,1-1.054-.292l-4.6-9.748L5.1,15.194l5.446,10.777c.167.311.794.271,1.121.1L28.631,17A.657.657,0,0,0,28.922,16.12Z"/>
  <path class="cls-2" d="M14.253,4.214C10.94,3.727,8.774,5.525,5.51,7.53l.247-3.888-4.6,6.937,6.82.171-1-1.7a11.128,11.128,0,0,1,6.548-.31c4.1,1.169,4.594,7.436,4.594,7.436l6.676-3.535A13.4,13.4,0,0,0,14.253,4.214Z"/>
  <path class="cls-1" d="M13.581,4.351c-2.916-.466-4.94.551-7.812,2.468L5.986,3.1,1.153,10.034l9.193.118L7.052,8.272a10.709,10.709,0,0,1,5.762-.3c5.955,1.344,5.911,6.419,5.911,6.419l4.006-2.687A11.645,11.645,0,0,0,13.581,4.351Z"/>
</svg>
