<svg id="Warstwa_1" data-name="Warstwa 1" xmlns="http://www.w3.org/2000/svg" viewBox="0 0 390 540">
  <defs>
    <style>
      .cls-1 {
        fill: #6f4129;
      }

      .cls-2 {
        fill: #cdbba7;
      }
    </style>
  </defs>
  <rect class="cls-1" width="390" height="540"/>
  <path class="cls-2" d="M257.343,323H133.221a5,5,0,0,1-4.261-2.383l-62.061-101a5,5,0,0,1,0-5.236l62.061-101A5,5,0,0,1,133.221,111H257.343a5,5,0,0,1,4.26,2.382l62.061,101a5,5,0,0,1,0,5.236l-62.061,101A5,5,0,0,1,257.343,323ZM136.017,313h118.53l58.989-96-58.989-96H136.017L77.028,217Z"/>
  <path class="cls-2" d="M69.589,118.207a2.5,2.5,0,0,1-2.481-2.2l-.664-5.477-4.888-2.559a2.5,2.5,0,0,1,.106-4.482l5-2.324.923-5.44a2.5,2.5,0,0,1,4.3-1.284l3.756,4.041,5.459-.8a2.5,2.5,0,0,1,2.548,3.688l-2.682,4.822,2.451,4.943A2.5,2.5,0,0,1,80.7,114.7l-5.415-1.061-3.944,3.859A2.5,2.5,0,0,1,69.589,118.207ZM68.362,105.89l1.565.819a2.5,2.5,0,0,1,1.323,1.915l.212,1.753,1.263-1.235a2.487,2.487,0,0,1,2.229-.666l1.734.339-.785-1.582a2.5,2.5,0,0,1,.055-2.326l.858-1.544-1.747.257a2.49,2.49,0,0,1-2.2-.771l-1.2-1.294-.3,1.742a2.5,2.5,0,0,1-1.412,1.849Z"/>
  <path class="cls-2" d="M56.589,398.206a2.5,2.5,0,0,1-2.481-2.2l-.664-5.478-4.888-2.558a2.5,2.5,0,0,1,.106-4.483l5-2.323.923-5.44a2.5,2.5,0,0,1,4.3-1.285l3.756,4.041,5.459-.8a2.5,2.5,0,0,1,2.548,3.688l-2.682,4.822,2.451,4.944A2.5,2.5,0,0,1,67.7,394.7l-5.415-1.06-3.944,3.858A2.5,2.5,0,0,1,56.589,398.206ZM55.363,385.89l1.564.819a2.5,2.5,0,0,1,1.323,1.914l.212,1.754,1.263-1.235a2.5,2.5,0,0,1,2.229-.666l1.734.339-.785-1.583a2.5,2.5,0,0,1,.055-2.325l.859-1.545-1.748.258a2.5,2.5,0,0,1-2.2-.771l-1.2-1.294-.3,1.742a2.5,2.5,0,0,1-1.412,1.849Z"/>
  <path class="cls-2" d="M317.305,425.292a2.5,2.5,0,0,1-2.482-2.2l-.6-4.939-4.407-2.306a2.5,2.5,0,0,1,.107-4.483l4.511-2.094.831-4.9a2.5,2.5,0,0,1,4.3-1.284l3.387,3.643L327.87,406a2.5,2.5,0,0,1,2.549,3.689L328,414.037l2.21,4.456a2.5,2.5,0,0,1-2.721,3.564l-4.881-.957-3.555,3.479A2.5,2.5,0,0,1,317.305,425.292Zm-.68-11.525,1.083.567a2.5,2.5,0,0,1,1.322,1.914l.148,1.214.874-.856a2.512,2.512,0,0,1,2.229-.666l1.2.236-.542-1.1a2.5,2.5,0,0,1,.054-2.326l.595-1.068-1.21.178a2.5,2.5,0,0,1-2.195-.771l-.832-.9-.2,1.2a2.5,2.5,0,0,1-1.413,1.85Z"/>
  <path class="cls-2" d="M345.16,146.111a2.5,2.5,0,0,1-2.383-1.743l-2.446-7.7-7.731-2.351a2.5,2.5,0,0,1-.729-4.424l6.568-4.706-.154-8.08a2.5,2.5,0,0,1,3.983-2.06l6.506,4.792,7.637-2.642a2.5,2.5,0,0,1,3.19,3.151l-2.547,7.669,4.872,6.446a2.5,2.5,0,0,1,.24,2.628,2.582,2.582,0,0,1-2.251,1.379l-8.08-.053-4.625,6.627A2.5,2.5,0,0,1,345.16,146.111Zm-6.26-15.106,4.143,1.26A2.5,2.5,0,0,1,344.7,133.9l1.311,4.126,2.478-3.55a2.438,2.438,0,0,1,2.067-1.07l4.329.029-2.611-3.454a2.5,2.5,0,0,1-.377-2.295l1.364-4.109-4.092,1.416a2.505,2.505,0,0,1-2.3-.35l-3.486-2.568.083,4.329a2.5,2.5,0,0,1-1.044,2.079Z"/>
  <path class="cls-2" d="M100.161,487.643a2.529,2.529,0,0,1-.377-.029,2.5,2.5,0,0,1-2.007-1.715l-2.446-7.7L87.6,475.847a2.5,2.5,0,0,1-.729-4.424l6.568-4.706-.153-8.079a2.5,2.5,0,0,1,3.983-2.061l6.5,4.793,7.637-2.642a2.5,2.5,0,0,1,3.19,3.15l-2.548,7.669,4.873,6.445A2.5,2.5,0,0,1,114.932,480h-.016l-8.081-.053-4.625,6.626A2.5,2.5,0,0,1,100.161,487.643ZM93.9,472.537l4.142,1.26a2.5,2.5,0,0,1,1.656,1.635l1.31,4.126,2.478-3.55a2.5,2.5,0,0,1,2.05-1.07h.017l4.329.029-2.611-3.453a2.5,2.5,0,0,1-.378-2.3l1.365-4.11-4.092,1.416a2.492,2.492,0,0,1-2.3-.349l-3.486-2.568.082,4.329a2.5,2.5,0,0,1-1.043,2.08Z"/>
  <path class="cls-2" d="M245.01,483.432q-.12,0-.24-.012a2.5,2.5,0,0,1-2.1-1.6l-2.865-7.555-7.849-1.925a2.5,2.5,0,0,1-.97-4.377l6.3-5.06-.6-8.057a2.5,2.5,0,0,1,3.864-2.276L247.314,457l7.481-3.058a2.5,2.5,0,0,1,3.358,2.972l-2.124,7.8,5.219,6.17a2.5,2.5,0,0,1-1.788,4.111l-8.071.39-4.255,6.869A2.5,2.5,0,0,1,245.01,483.432Zm-6.943-14.744,4.206,1.032a2.5,2.5,0,0,1,1.743,1.541l1.535,4.049,2.279-3.681a2.5,2.5,0,0,1,2-1.181l4.324-.209-2.8-3.3a2.5,2.5,0,0,1-.5-2.272L252,460.484l-4.007,1.639a2.5,2.5,0,0,1-2.316-.224l-3.621-2.373.319,4.318a2.5,2.5,0,0,1-.928,2.134Z"/>
  <path class="cls-2" d="M0,0V89.975c.167.005.331.025.5.025A15.5,15.5,0,0,0,16,74.5V16H74.5A15.5,15.5,0,0,0,90,.5c0-.169-.02-.333-.025-.5Z"/>
  <path class="cls-2" d="M390,0V89.975c-.167.005-.331.025-.5.025A15.5,15.5,0,0,1,374,74.5V16H315.5A15.5,15.5,0,0,1,300,.5c0-.169.02-.333.025-.5Z"/>
  <path class="cls-2" d="M0,540V450.025c.167,0,.331-.025.5-.025A15.5,15.5,0,0,1,16,465.5V524H74.5A15.5,15.5,0,0,1,90,539.5c0,.169-.02.333-.025.5Z"/>
  <path class="cls-2" d="M390,540V450.025c-.167,0-.331-.025-.5-.025A15.5,15.5,0,0,0,374,465.5V524H315.5A15.5,15.5,0,0,0,300,539.5c0,.169.02.333.025.5Z"/>
  <g>
    <path class="cls-2" d="M168.941,177.081l-15.849-31.568-.572,10.611q-.266,4.622-.463,9.179t-.726,8.674a43.274,43.274,0,0,1-1.651,7.638,18,18,0,0,1-3.259,6.1,14.372,14.372,0,0,1-5.547,4.029,21.833,21.833,0,0,1-8.52,1.452,24.251,24.251,0,0,1-4.314-.374,17.677,17.677,0,0,1-3.654-1.034,8.221,8.221,0,0,1-2.532-1.563,2.679,2.679,0,0,1-.946-1.959,6.139,6.139,0,0,1,.22-1.608,5.314,5.314,0,0,1,.66-1.5,3.694,3.694,0,0,1,1.079-1.1,2.552,2.552,0,0,1,1.431-.418,1.075,1.075,0,0,1,.858.484,9.251,9.251,0,0,1,.771,1.21q.4.727.9,1.563a6.818,6.818,0,0,0,1.321,1.563,6.992,6.992,0,0,0,1.959,1.211,7.35,7.35,0,0,0,2.862.485,12.567,12.567,0,0,0,5.7-1.167,9.991,9.991,0,0,0,3.808-3.368,16.707,16.707,0,0,0,2.29-5.328,48.735,48.735,0,0,0,1.188-7.088q.175-2.2.353-4.248t.352-4.073q.176-2.025.33-4.117t.33-4.424q.22-3.392.4-6.45t.286-5.7q.111-2.642.177-4.755t.109-3.654q-.749-1.542-1.32-2.488a5.667,5.667,0,0,0-1.189-1.453,3.331,3.331,0,0,0-1.365-.682,8.016,8.016,0,0,0-1.805-.176,9.137,9.137,0,0,0-2.179.33,16.949,16.949,0,0,0-2.686.946,20.193,20.193,0,0,0-2.774,1.519,13,13,0,0,0-2.465,2.07,10.535,10.535,0,0,0-1.761,2.575,6.866,6.866,0,0,0-.683,3.038,5.6,5.6,0,0,0,.374,2.246,3.368,3.368,0,0,0,.881,1.254,2.392,2.392,0,0,0,1.013.529,3.951,3.951,0,0,0,.726.11,3.838,3.838,0,0,0,1.805-.374,10.556,10.556,0,0,0,1.277-.793l1.079-.792a1.912,1.912,0,0,1,1.167-.374,3,3,0,0,1,1.122.241,3.22,3.22,0,0,1,1.1.771,4.4,4.4,0,0,1,.858,1.387,5.51,5.51,0,0,1,.353,2.091,6.356,6.356,0,0,1-.683,3.038,6.757,6.757,0,0,1-1.761,2.135,7.277,7.277,0,0,1-2.465,1.277,9.871,9.871,0,0,1-6.56-.308,8.383,8.383,0,0,1-2.884-2,8.589,8.589,0,0,1-1.805-2.994,10.706,10.706,0,0,1-.617-3.654,14.855,14.855,0,0,1,2.114-7.991,18.5,18.5,0,0,1,5.547-5.7,25.35,25.35,0,0,1,7.771-3.412,35.1,35.1,0,0,1,8.827-1.123,21.284,21.284,0,0,1,6.032.727,13.013,13.013,0,0,1,4.051,1.937,10.969,10.969,0,0,1,2.685,2.84,32.261,32.261,0,0,1,1.937,3.434l11.624,23.6q4.533-8.937,8.255-16t6.89-12.438q3.171-5.372,5.922-9.158a43.19,43.19,0,0,1,5.326-6.186,18.422,18.422,0,0,1,5.108-3.5,13.071,13.071,0,0,1,5.261-1.1,6.6,6.6,0,0,1,3.788.991,3.358,3.358,0,0,1,1.453,2.972,6.492,6.492,0,0,1-.573,2.906,1.753,1.753,0,0,1-1.585,1.145,1.454,1.454,0,0,1-1.278-.639c-.293-.425-.58-.887-.857-1.387a6.78,6.78,0,0,0-1.035-1.387,2.4,2.4,0,0,0-1.805-.638,4.873,4.873,0,0,0-1.717.4,9.243,9.243,0,0,0-2.092,1.189,13.8,13.8,0,0,0-2.134,1.981,12.592,12.592,0,0,0-1.85,2.774,15.228,15.228,0,0,0-1.232,3.61,15.55,15.55,0,0,0-.266,4.447q.176,2.773.484,6.494t.684,7.969q.372,4.249.793,8.783t.857,8.938q.44,4.4.86,8.453t.769,7.331q.353,3.281.66,5.547t.485,3.1a7.014,7.014,0,0,0,.7,2.047,1.664,1.664,0,0,0,1.584.771,6.045,6.045,0,0,0,2.246-.418,19.1,19.1,0,0,0,1.892-.859l.706,1.629q-.792.573-2,1.3a22.245,22.245,0,0,1-2.774,1.387,21.34,21.34,0,0,1-3.433,1.1,17.594,17.594,0,0,1-4.03.441,12.213,12.213,0,0,1-4.8-.771,7.288,7.288,0,0,1-2.707-1.893,6.075,6.075,0,0,1-1.276-2.378q-.332-1.254-.507-2.267-.4-2.245-.836-5.415t-.859-6.8q-.418-3.633-.815-7.485t-.726-7.529q-.33-3.675-.594-6.934t-.44-5.68q-1.321,2.158-2.444,4.161t-2.179,4.094q-1.057,2.093-2.158,4.381T179.046,164q-1.212,2.686-2.642,5.9t-3.148,7.177Z"/>
    <path class="cls-2" d="M253.739,154.054a76.169,76.169,0,0,1-1.563,15.564,77.31,77.31,0,0,1-4.315,14.089,64.469,64.469,0,0,1-6.538,12.019,50.608,50.608,0,0,1-8.233,9.312,36.518,36.518,0,0,1-9.4,6.032,24.9,24.9,0,0,1-10.016,2.157,11.485,11.485,0,0,1-5.987-1.3,3.951,3.951,0,0,1-2.114-3.5,5.118,5.118,0,0,1,.264-1.629,5.3,5.3,0,0,1,.7-1.409,3.579,3.579,0,0,1,1.057-.991,2.508,2.508,0,0,1,1.321-.374,1.621,1.621,0,0,1,1.387.837q.55.836,1.167,1.827a9.3,9.3,0,0,0,1.5,1.827,3.373,3.373,0,0,0,2.421.837,13.7,13.7,0,0,0,4.138-.683,21.332,21.332,0,0,0,4.337-1.959,32.044,32.044,0,0,0,4.359-3.1,50.48,50.48,0,0,0,4.293-4.072q-1.234-4.449-2.84-9.709t-3.39-10.588q-1.784-5.326-3.654-10.28t-3.655-8.784a39.224,39.224,0,0,0-3.434-6.142q-1.651-2.311-2.928-2.311a2.646,2.646,0,0,0-1.3.264,9.384,9.384,0,0,0-1.079.748l-.88-1.1q.88-.749,1.849-1.541a12.211,12.211,0,0,1,2.29-1.453,14.205,14.205,0,0,1,3.082-1.079,18.5,18.5,0,0,1,4.227-.418,10.6,10.6,0,0,1,5,1.211,11.13,11.13,0,0,1,4.2,4.468,64.353,64.353,0,0,1,2.84,5.812q1.474,3.391,2.971,7.573t3.017,9.047q1.519,4.866,3.06,10.193a68.084,68.084,0,0,0,4.4-12.13,51.985,51.985,0,0,0,1.674-13.186,23.876,23.876,0,0,0-.309-4.139,22.291,22.291,0,0,0-.7-2.928q-.4-1.21-.705-2.069a4.581,4.581,0,0,1-.308-1.519,1.436,1.436,0,0,1,.529-1.122,3.839,3.839,0,0,1,1.276-.727,7.959,7.959,0,0,1,1.52-.374,9.475,9.475,0,0,1,1.3-.11,2.977,2.977,0,0,1,1.827.484,2.842,2.842,0,0,1,.947,1.387,7.609,7.609,0,0,1,.351,2.179Q253.739,152.47,253.739,154.054Z"/>
    <path class="cls-2" d="M120.952,209.408q12.767,0,18.777,3.985a13.054,13.054,0,0,1,6.01,11.6,13.6,13.6,0,0,1-.418,3.478,14.459,14.459,0,0,1-1.079,2.884,12.453,12.453,0,0,1-1.5,2.311,13.926,13.926,0,0,1-1.717,1.762,15.747,15.747,0,0,1-4.667,2.818v.66a18.047,18.047,0,0,1,7.353,2.466,16.157,16.157,0,0,1,2.685,2.091,13.486,13.486,0,0,1,2.356,3.037,17.225,17.225,0,0,1,1.673,4.139,20.707,20.707,0,0,1,.638,5.394,19.971,19.971,0,0,1-1.672,8.32,16.487,16.487,0,0,1-4.976,6.275,23.367,23.367,0,0,1-8.233,3.94,43.1,43.1,0,0,1-11.447,1.365,52.33,52.33,0,0,1-9.818-.748,16.183,16.183,0,0,1-5.9-2.18,7.33,7.33,0,0,1-2.884-3.456,12.816,12.816,0,0,1-.77-4.579V216.805q0-2.421-3.346-2.422a17.422,17.422,0,0,0-4.909.727,17.811,17.811,0,0,0-4.491,1.981,11.739,11.739,0,0,0-3.28,2.994,6.232,6.232,0,0,0-1.277,3.765,5.57,5.57,0,0,0,.375,2.245,3.536,3.536,0,0,0,.858,1.255,2.254,2.254,0,0,0,.991.528,3.664,3.664,0,0,0,2.531-.264,10.432,10.432,0,0,0,1.277-.793l1.079-.792a1.911,1.911,0,0,1,1.166-.374,3.007,3.007,0,0,1,1.123.241,3.22,3.22,0,0,1,1.1.771,4.4,4.4,0,0,1,.859,1.387,5.513,5.513,0,0,1,.352,2.092,6.352,6.352,0,0,1-.682,3.037,6.757,6.757,0,0,1-1.761,2.135,7.282,7.282,0,0,1-2.466,1.277,9.451,9.451,0,0,1-2.751.419,9.585,9.585,0,0,1-3.809-.727,8.4,8.4,0,0,1-2.884-2,8.61,8.61,0,0,1-1.805-2.994A10.725,10.725,0,0,1,83,227.636a14.528,14.528,0,0,1,1.365-6.45,14.179,14.179,0,0,1,3.852-4.821A21.824,21.824,0,0,1,94.183,213a43.857,43.857,0,0,1,7.7-2.136,78.158,78.158,0,0,1,9.048-1.122Q115.756,209.409,120.952,209.408Zm-.881,57.985a8.915,8.915,0,0,0,.2,1.915,3.374,3.374,0,0,0,.793,1.563,4.13,4.13,0,0,0,1.629,1.057,8.354,8.354,0,0,0,7.154-.991,12.983,12.983,0,0,0,3.478-3.566,17.708,17.708,0,0,0,2.246-4.888,19.127,19.127,0,0,0,.792-5.393,21.247,21.247,0,0,0-1.078-7.066,14.864,14.864,0,0,0-3.016-5.173,13.617,13.617,0,0,0-4.579-3.281,16.363,16.363,0,0,0-5.724-1.342l.881-2.246a9.723,9.723,0,0,0,3.7-.528,7.281,7.281,0,0,0,3.1-2.158,11.175,11.175,0,0,0,2.135-4.16,23.09,23.09,0,0,0,.793-6.582,16.529,16.529,0,0,0-.66-4.843,12.112,12.112,0,0,0-1.74-3.632,7.8,7.8,0,0,0-2.509-2.268,5.982,5.982,0,0,0-2.928-.792,7.139,7.139,0,0,0-1.783.22,3.787,3.787,0,0,0-1.5.748,3.653,3.653,0,0,0-1.013,1.387,5.362,5.362,0,0,0-.374,2.135Z"/>
    <path class="cls-2" d="M156.482,252.688a27.979,27.979,0,0,1,1.673-10.1,21.39,21.39,0,0,1,4.469-7.242,18.091,18.091,0,0,1,6.494-4.359,20.991,20.991,0,0,1,7.749-1.453,22.537,22.537,0,0,1,7.749,1.343,17.7,17.7,0,0,1,6.494,4.116,20.15,20.15,0,0,1,4.469,7.023,27.439,27.439,0,0,1,1.673,10.06,28.924,28.924,0,0,1-1.673,10.215,22.771,22.771,0,0,1-4.469,7.485,18.592,18.592,0,0,1-6.494,4.6,19.727,19.727,0,0,1-7.749,1.563,20.729,20.729,0,0,1-7.749-1.475,18.331,18.331,0,0,1-6.494-4.381,21.347,21.347,0,0,1-4.469-7.264A28.15,28.15,0,0,1,156.482,252.688Zm27.077-.441q0-3.522-.242-6.8a30.59,30.59,0,0,0-.947-5.834,10.285,10.285,0,0,0-2.025-4.072,4.385,4.385,0,0,0-3.478-1.519,4.281,4.281,0,0,0-3.478,1.607,11.13,11.13,0,0,0-2.026,4.227,30.868,30.868,0,0,0-.924,5.965q-.22,3.347-.22,6.869t.22,6.89a31.352,31.352,0,0,0,.924,6.009,11.121,11.121,0,0,0,2.026,4.249,4.278,4.278,0,0,0,3.478,1.607,4.217,4.217,0,0,0,3.478-1.672,11.79,11.79,0,0,0,2.025-4.4,34.559,34.559,0,0,0,.947-6.163Q183.559,255.769,183.559,252.247Z"/>
    <path class="cls-2" d="M202.666,252.688a28,28,0,0,1,1.673-10.1,21.374,21.374,0,0,1,4.469-7.242,18.108,18.108,0,0,1,6.494-4.359,21,21,0,0,1,7.749-1.453,22.537,22.537,0,0,1,7.749,1.343,17.692,17.692,0,0,1,6.494,4.116,20.15,20.15,0,0,1,4.469,7.023,27.418,27.418,0,0,1,1.673,10.06,28.9,28.9,0,0,1-1.673,10.215,22.771,22.771,0,0,1-4.469,7.485,18.583,18.583,0,0,1-6.494,4.6,19.727,19.727,0,0,1-7.749,1.563,20.732,20.732,0,0,1-7.749-1.475,18.348,18.348,0,0,1-6.494-4.381,21.332,21.332,0,0,1-4.469-7.264A28.172,28.172,0,0,1,202.666,252.688Zm27.077-.441q0-3.522-.242-6.8a30.673,30.673,0,0,0-.946-5.834,10.312,10.312,0,0,0-2.026-4.072,4.386,4.386,0,0,0-3.478-1.519,4.284,4.284,0,0,0-3.479,1.607,11.129,11.129,0,0,0-2.024,4.227,30.787,30.787,0,0,0-.925,5.965q-.22,3.347-.221,6.869t.221,6.89a31.269,31.269,0,0,0,.925,6.009,11.12,11.12,0,0,0,2.024,4.249,4.281,4.281,0,0,0,3.479,1.607,4.218,4.218,0,0,0,3.478-1.672,11.822,11.822,0,0,0,2.026-4.4,34.655,34.655,0,0,0,.946-6.163Q229.743,255.769,229.743,252.247Z"/>
    <path class="cls-2" d="M265.274,241.5q1.54-2.068,3.3-4.2a30.35,30.35,0,0,1,3.786-3.853,19.383,19.383,0,0,1,4.4-2.817,12.212,12.212,0,0,1,5.195-1.1,8.09,8.09,0,0,1,4.183.991,9.121,9.121,0,0,1,2.708,2.377,8.8,8.8,0,0,1,1.453,2.884,9.785,9.785,0,0,1,.418,2.553,17.136,17.136,0,0,1-.506,4.029A15.091,15.091,0,0,1,288.5,246.5a18.435,18.435,0,0,1-3.235,3.963,22.09,22.09,0,0,1-5.108,3.5,151.932,151.932,0,0,0,8.057,15.079,75.5,75.5,0,0,0,7.551,10.392,29.662,29.662,0,0,0,6.978,6.009,12.79,12.79,0,0,0,6.384,1.937,4.341,4.341,0,0,0,1.057-.132,7.447,7.447,0,0,0,.968-.309,9.446,9.446,0,0,0,1.013-.439l.837,1.54q-1.19.66-2.422,1.255a17.012,17.012,0,0,1-2.817,1.035,26.212,26.212,0,0,1-3.655.7,39.418,39.418,0,0,1-4.931.265,21.645,21.645,0,0,1-5.129-.616,17.563,17.563,0,0,1-5.085-2.2,28.646,28.646,0,0,1-5.174-4.226,47.11,47.11,0,0,1-5.371-6.693,96.051,96.051,0,0,1-5.657-9.641q-2.907-5.59-6.032-13.076a46.019,46.019,0,0,0,6.648-5.79,28.322,28.322,0,0,0,3.654-4.821,12.559,12.559,0,0,0,1.541-3.83,16.232,16.232,0,0,0,.309-2.862c0-.117-.016-.315-.045-.594a1.943,1.943,0,0,0-.286-.815,2.291,2.291,0,0,0-.7-.7,2.334,2.334,0,0,0-1.3-.308,5.211,5.211,0,0,0-3.3,1.386,19.575,19.575,0,0,0-3.192,3.434,33.151,33.151,0,0,0-2.752,4.4q-1.231,2.356-2.025,4.293v22.718a5.764,5.764,0,0,1-.2,1.365,3.176,3.176,0,0,1-.925,1.5,5.915,5.915,0,0,1-2.113,1.211,11.15,11.15,0,0,1-3.721.506,9.784,9.784,0,0,1-3.654-.55,5.116,5.116,0,0,1-1.959-1.3,3.379,3.379,0,0,1-.793-1.541,7.063,7.063,0,0,1-.153-1.277V214.472a4.092,4.092,0,0,0-.595-2.224,2.179,2.179,0,0,0-2-.946,3.211,3.211,0,0,0-1.3.242,5.588,5.588,0,0,0-1.167.726l-.881-1.057a26.41,26.41,0,0,1,2.247-1.651,16.3,16.3,0,0,1,2.707-1.43,20.2,20.2,0,0,1,3.148-1.013,15.245,15.245,0,0,1,3.523-.4,10.4,10.4,0,0,1,4.446.77,5.721,5.721,0,0,1,2.333,1.893,5.446,5.446,0,0,1,.9,2.378,18.431,18.431,0,0,1,.154,2.223Z"/>
  </g>
</svg>
