<svg id="Warstwa_1" data-name="Warstwa 1" xmlns="http://www.w3.org/2000/svg" viewBox="0 0 30 30">
  <defs>
    <style>
      .cls-1 {
        fill: #865439;
      }
    </style>
  </defs>
  <path class="cls-1" d="M11.786,27.048c-.174,0-.348,0-.522-.01a3.962,3.962,0,0,1-1.789-.41.786.786,0,0,1-.449-.929.812.812,0,0,1,.4-.443,13.64,13.64,0,0,1,3.887-1.273,13.351,13.351,0,0,0,3.4-1.058,3.476,3.476,0,0,0-.572-.022c-2.916.13-5.852.394-8.728.785l-.271.038a16.028,16.028,0,0,1-3.613.219c-1.053-.091-1.441-.554-1.581-.927a.5.5,0,0,1,.937-.352c.052.138.339.249.732.283a15.056,15.056,0,0,0,3.389-.214l.272-.037c2.9-.4,5.872-.663,8.818-.793.387-.023,1.578-.071,1.993.829l.173.376-.337.241a11.64,11.64,0,0,1-4.4,1.609,14.865,14.865,0,0,0-3.185.945,3.913,3.913,0,0,0,.96.133,22.8,22.8,0,0,0,3.87-.283,21.394,21.394,0,0,1,4.459-.265.5.5,0,0,1,.459.537.485.485,0,0,1-.537.459,20.9,20.9,0,0,0-4.253.261A27.345,27.345,0,0,1,11.786,27.048Z"/>
  <g>
    <polygon class="cls-1" points="25.225 11.361 27.353 10.132 25.353 6.668 23.076 7.983 25.225 11.361"/>
    <polygon class="cls-1" points="23.339 12.45 21.189 9.072 4.568 18.668 4.571 18.673 1.969 22.399 6.586 22.138 6.579 22.127 23.339 12.45"/>
  </g>
</svg>
