<svg id="Warstwa_1" data-name="Warstwa 1" xmlns="http://www.w3.org/2000/svg" viewBox="0 0 30 30">
  <defs>
    <style>
      .cls-1 {
        fill: #865439;
      }
    </style>
  </defs>
  <path class="cls-1" d="M28.9,10.121a1.483,1.483,0,0,0-1.049-.437,1.457,1.457,0,0,0-1.046.463,16.507,16.507,0,0,1-11.819,5.305A16.453,16.453,0,0,1,3.13,10.133a1.46,1.46,0,0,0-1.043-.444H2.081a1.453,1.453,0,0,0-1.046.454,1.5,1.5,0,0,0-.012,2.042,19.344,19.344,0,0,0,13.959,6.228,18.5,18.5,0,0,0,3.809-.426l4.16,2.608a1.43,1.43,0,0,0,.751.221,1.453,1.453,0,0,0,1.483-1.48,1.477,1.477,0,0,0-.693-1.26l-2.047-1.282q.2-.09.405-.183l2.691,1.623a1.447,1.447,0,0,0,.752.209,1.473,1.473,0,0,0,1.455-1.488,1.5,1.5,0,0,0-.712-1.265l-1.269-.765a20.086,20.086,0,0,0,3.166-2.744A1.487,1.487,0,0,0,28.9,10.121Z"/>
</svg>
