<svg id="Warstwa_1" data-name="Warstwa 1" xmlns="http://www.w3.org/2000/svg" viewBox="0 0 30 30">
  <defs>
    <style>
      .cls-1 {
        fill: #865439;
      }
    </style>
  </defs>
  <path class="cls-1" d="M27.3,5.593H3.02a.85.85,0,0,0-.849.849V23.525a.85.85,0,0,0,.849.849H27.3a.85.85,0,0,0,.849-.849V6.442A.85.85,0,0,0,27.3,5.593Zm-2.743,1.7-9.844,7.95L4.864,7.291Zm1.894,15.385H3.868V8.668l10.307,8.318a.806.806,0,0,0,.224.124.691.691,0,0,0,.544.025.951.951,0,0,0,.3-.149l.136-.105,11.066-8.94Z"/>
</svg>
