<svg id="Warstwa_1" data-name="Warstwa 1" xmlns="http://www.w3.org/2000/svg" viewBox="0 0 30 30">
  <defs>
    <style>
      .cls-1 {
        fill: #865439;
      }
    </style>
  </defs>
  <path class="cls-1" d="M29.283,14.721a1.936,1.936,0,0,0-.075-.3l-.1-.208a1.72,1.72,0,0,0-.18-.26A19.061,19.061,0,0,0,15.015,7.5,18.933,18.933,0,0,0,1.141,13.943L.959,14.2a1.364,1.364,0,0,0-.083.15l-.064.172a1.97,1.97,0,0,0-.041.2l-.035.269.006.08a1.53,1.53,0,0,0,.035.243l.1.335a1.725,1.725,0,0,0,.1.178,1.423,1.423,0,0,0,.1.156l.063.077a18.934,18.934,0,0,0,13.9,6.44,19.076,19.076,0,0,0,13.92-6.493,1.5,1.5,0,0,0,.156-.238l.119-.261a1.4,1.4,0,0,0,.054-.239c.011-.055.019-.11.025-.166l.01-.1ZM4.143,15A16.97,16.97,0,0,1,9.36,11.646a7.526,7.526,0,0,0,0,6.708A16.979,16.979,0,0,1,4.143,15Zm16.539,3.369a7.535,7.535,0,0,0,0-6.739A16.551,16.551,0,0,1,25.906,15,16.555,16.555,0,0,1,20.682,18.369Z"/>
</svg>
