<?xml version="1.0" encoding="utf-8"?>
<!-- Generator: Adobe Illustrator 25.4.1, SVG Export Plug-In . SVG Version: 6.00 Build 0)  -->
<svg version="1.1" id="Warstwa_1" xmlns="http://www.w3.org/2000/svg" xmlns:xlink="http://www.w3.org/1999/xlink" x="0px" y="0px"
	 viewBox="0 0 901 757.2" style="enable-background:new 0 0 901 757.2;" xml:space="preserve">
<style type="text/css">
	.st0{fill:url(#blobBig_00000052811588118836174220000017995792538301287840_);}
	.st1{fill:url(#SVGID_1_);}
	.st2{fill:url(#SVGID_00000153673190459012627080000010328377264388181684_);}
	.st3{fill:url(#SVGID_00000062879393503706420730000017274940583359460741_);}
	.st4{fill:#001863;}
	.st5{fill:#D4CFC2;}
	.st6{fill:#954800;}
	.st7{fill:#A77742;}
	.st8{fill:url(#SVGID_00000154402435726161385650000011424513523217556105_);}
	.st9{fill:#009377;}
	.st10{fill:#3C3C3C;}
	.st11{fill:#787878;}
	.st12{fill:#1660AE;}
	.st13{fill:#329FC7;}
	.st14{fill:#7C7C7E;}
	.st15{fill:#E3E0DE;}
	.st16{fill:none;stroke:#E3E0DE;stroke-width:4;stroke-linecap:round;stroke-miterlimit:10;}
	.st17{fill:url(#SVGID_00000170241854075769984510000014314105766624421257_);}
	.st18{fill:#F3CEA7;}
	.st19{fill:#5C3100;}
	.st20{fill:url(#SVGID_00000004524693342568086010000010135832760979663245_);}
	.st21{fill:url(#SVGID_00000153689575857079783740000006070003423501682317_);}
	.st22{fill:url(#lamp2_00000158750923556395694520000008153492301643978173_);}
	.st23{fill:url(#SVGID_00000174579617843792060680000000989960959702325907_);}
	.st24{fill:url(#SVGID_00000003069409195441960370000004973371139357523390_);}
	.st25{fill:#F6FFB9;}
	.st26{fill:#D08D00;}
	.st27{fill:#5E392C;}
	.st28{opacity:0.4;fill:#D4CFC2;enable-background:new    ;}
	.st29{opacity:0.61;fill:#D4CFC2;enable-background:new    ;}
	.st30{fill:#D4CFC2;enable-background:new    ;}
</style>
<g>
	<g id="Warstwa_1_00000146476874389624498620000015291092828113448347_">
		
			<linearGradient id="blobBig_00000172434575443946452360000016183955225221462662_" gradientUnits="userSpaceOnUse" x1="355.1367" y1="12.253" x2="567.2615" y2="224.3784" gradientTransform="matrix(1 0 0 -1 0 758)">
			<stop  offset="0.135" style="stop-color:#42180D"/>
			<stop  offset="0.605" style="stop-color:#842F1A"/>
			<stop  offset="0.832" style="stop-color:#501D10"/>
		</linearGradient>
		<path id="blobBig" style="fill:url(#blobBig_00000172434575443946452360000016183955225221462662_);" d="M461.2,601.4
			c115.2,0,208.6,17.1,208.6,38.2c0,21.1-93.4,38.2-208.6,38.2s-208.6-17.1-208.6-38.2c0-10.1,22-19.9,61.1-27
			C352.8,605.4,405.9,601.4,461.2,601.4z"/>
		
			<linearGradient id="SVGID_1_" gradientUnits="userSpaceOnUse" x1="368.5754" y1="135.076" x2="601.6075" y2="135.076" gradientTransform="matrix(1 0 0 -1 0 758)">
			<stop  offset="0" style="stop-color:#001836"/>
			<stop  offset="0.163" style="stop-color:#022043"/>
			<stop  offset="0.462" style="stop-color:#083464"/>
			<stop  offset="0.862" style="stop-color:#12549A"/>
			<stop  offset="1" style="stop-color:#1660AE"/>
		</linearGradient>
		<path class="st1" d="M485.1,599.1c64.4,0,116.5,10.7,116.5,23.9c0,13.2-52.2,23.9-116.5,23.9s-116.5-10.7-116.5-23.9
			c0-6.3,12.3-12.4,34.1-16.9C424.5,601.6,454.2,599.1,485.1,599.1z"/>
		<g id="blobBrown">
			
				<image style="overflow:visible;opacity:0.65;enable-background:new    ;" width="210" height="115" xlink:href="37F11829.png"  transform="matrix(0.4911 0 0 0.4911 280.4485 646.0804)">
			</image>
			
				<linearGradient id="SVGID_00000075141503776016457260000007539509261799921842_" gradientUnits="userSpaceOnUse" x1="292.3578" y1="91.9682" x2="371.6475" y2="91.9682" gradientTransform="matrix(1 0 0 -1 0 758)">
				<stop  offset="0" style="stop-color:#842F1A"/>
				<stop  offset="0.497" style="stop-color:#913C0F"/>
				<stop  offset="1" style="stop-color:#A24D00"/>
			</linearGradient>
			<path style="fill:url(#SVGID_00000075141503776016457260000007539509261799921842_);" d="M332,649.9c-10.5,0-20.6,1.7-28,4.7
				c-7.4,3-11.6,7.1-11.6,11.4c0,8.9,17.7,16.1,39.6,16.1s39.6-7.2,39.6-16.1C371.6,657.1,353.9,649.9,332,649.9z"/>
		</g>
		
			<linearGradient id="SVGID_00000048467523522129519140000007611107611340166020_" gradientUnits="userSpaceOnUse" x1="386.5453" y1="138.6593" x2="582.3854" y2="138.6593" gradientTransform="matrix(1 0 0 -1 0 758)">
			<stop  offset="0" style="stop-color:#004D3C"/>
			<stop  offset="1" style="stop-color:#00775B"/>
		</linearGradient>
		<path style="fill:url(#SVGID_00000048467523522129519140000007611107611340166020_);" d="M484.5,605.8c54.1,0,97.9,6,97.9,13.5
			c0,7.5-43.8,13.5-97.9,13.5s-97.9-6-97.9-13.5c0-3.6,10.3-7,28.7-9.6C433.6,607.3,458.5,605.8,484.5,605.8z"/>
		<g>
			<path class="st4" d="M406.8,623.8c-0.8,0-2.7,2-1.6,2C406,625.8,407.9,623.8,406.8,623.8z"/>
			<g>
				<path class="st4" d="M401.7,620.4c-0.8,0-2.7,2-1.6,2C401,622.4,402.8,620.4,401.7,620.4z"/>
				<g>
					<path class="st4" d="M435.6,627.2c-0.8,0-2.7,2-1.6,2C434.8,629.2,436.7,627.2,435.6,627.2z"/>
					<g>
						<path class="st4" d="M427.5,625.1c-0.8,0-2.7,2-1.6,2C426.7,627.1,428.6,625.1,427.5,625.1z"/>
						<g>
							<path class="st4" d="M405.7,613.1c0.8,0,2.7-2,1.6-2C406.5,611.1,404.6,613.1,405.7,613.1z"/>
							<g>
								<path class="st4" d="M413.7,609.7c0.8,0,2.7-2,1.6-2C414.5,607.8,412.6,609.7,413.7,609.7z"/>
								<g>
									<path class="st4" d="M476.6,628.5c-0.8,0-2.7,2-1.6,2C475.8,630.5,477.7,628.5,476.6,628.5z"/>
									<path class="st4" d="M566.7,617.4c0-3.5-15-6.5-37.7-8.3c0.4-0.5,0.6-1,0-1c-0.2,0-0.4,0.1-0.5,0.2c0-0.1-0.1-0.2-0.3-0.2
										c-0.5,0.1-1,0.4-1.3,0.8c-12.5-0.9-27.3-1.4-43-1.4c-7,0-13.9,0.1-20.5,0.3c-0.1-0.1-0.2-0.1-0.3-0.1c-0.1,0-0.3,0-0.4,0.1
										c-3.2,0.1-6.4,0.2-9.4,0.4c0.8-0.5,1.8-1.8,1-1.8c-0.6,0-2,1.3-1.9,1.8c-3.3,0.2-6.5,0.3-9.6,0.6c0.9-0.3,2.3-1.9,1.3-1.9
										c-0.7,0-2.4,1.7-1.7,2c-2.2,0.2-4.4,0.3-6.6,0.5c0.6-0.6,0.9-1.2,0.3-1.2c-0.5,0-1.4,0.7-1.7,1.3c-1.8,0.2-3.5,0.3-5.1,0.5
										c0-0.1-0.1-0.1-0.3-0.1c-0.2,0-0.4,0.1-0.6,0.2c-1,0.1-2,0.2-2.9,0.3c-1.1,0.1-2.2,0.3-3.3,0.4c0.7-0.6,1.2-1.4,0.5-1.4
										c-0.6,0-1.7,1-1.9,1.6c-2,0.3-3.9,0.6-5.6,0.9c0.6-0.6,0.9-1.2,0.3-1.2c-0.5,0-1.6,0.9-1.8,1.5c-8.1,1.6-12.4,3.4-12.4,5.2
										c0,2.3,6.6,4.4,17.6,6.1c-0.9,0.5-2,1.8-1.1,1.8c0.6,0,1.9-1.2,1.9-1.7c5.6,0.8,12.4,1.6,20,2.1c-0.6,0.6-1,1.3-0.3,1.3
										c0.4,0,1.2-0.6,1.6-1.2c1.4,0.1,2.9,0.2,4.3,0.3c-0.8,0.5-1.8,1.7-0.9,1.7c0.6,0,1.8-1.1,1.9-1.7c6.7,0.4,14,0.7,21.7,0.9
										c-0.8,0.6-1.5,1.6-0.7,1.6c0.6,0,1.7-1,1.9-1.6c4.9,0.1,9.9,0.2,15,0.2c5.6,0,11.1-0.1,16.4-0.2c-0.8,0.6-1.5,1.6-0.8,1.6
										c0.6,0,1.7-1.1,1.9-1.6c1.2,0,2.4-0.1,3.6-0.1c-0.6,0.6-1.1,1.3-0.4,1.3c0.5,0,1.4-0.8,1.8-1.4c7.1-0.2,13.8-0.6,20-1
										c-0.8,0.1-2.5,2-1.5,2c0.8,0,2.6-1.9,1.6-2C550.6,624.2,566.7,621.1,566.7,617.4z"/>
								</g>
							</g>
						</g>
					</g>
				</g>
			</g>
		</g>
		<path class="st4" d="M397.5,621.3c-0.8,0-2.7,2-1.6,2C396.7,623.3,398.6,621.3,397.5,621.3z"/>
		<path class="st4" d="M401.3,623.8c-0.8,0-2.7,2-1.6,2C400.5,625.8,402.4,623.8,401.3,623.8z"/>
		<path class="st4" d="M392.4,617.5c-0.8,0-2.7,2-1.6,2C391.7,619.5,393.5,617.5,392.4,617.5z"/>
		<path class="st4" d="M392.9,620.9c-0.8,0-2.7,2-1.6,2C392.1,622.9,394,620.9,392.9,620.9z"/>
		<path class="st4" d="M397.5,616.6c-0.8,0-2.7,2-1.6,2C396.7,618.6,398.6,616.6,397.5,616.6z"/>
		<path class="st4" d="M419.5,625.9c-0.8,0-2.7,2-1.6,2C418.7,627.9,420.6,625.9,419.5,625.9z"/>
		<path class="st4" d="M411.9,625.1c-0.8,0-2.7,2-1.6,2C411.1,627.1,413,625.1,411.9,625.1z"/>
		<path class="st4" d="M400.5,613.3c-0.8,0-2.7,2-1.6,2C399.7,615.2,401.6,613.3,400.5,613.3z"/>
		<path class="st4" d="M425.8,629.7c-0.8,0-2.7,2-1.6,2C425.1,631.7,426.9,629.7,425.8,629.7z"/>
		<path class="st4" d="M544.2,608.2c-0.8,0-2.7,2-1.6,2C543.4,610.2,545.3,608.2,544.2,608.2z"/>
		<g>
			<path class="st4" d="M496,629.3c-0.8,0-2.7,2-1.6,2C495.2,631.3,497.1,629.3,496,629.3z"/>
			<path class="st4" d="M494.5,629.6c0.8,0,2.7-2,1.6-2C495.2,627.6,493.4,629.6,494.5,629.6z"/>
		</g>
		<path class="st4" d="M440.2,629.3c-0.8,0-2.7,2-1.6,2C439.4,631.3,441.3,629.3,440.2,629.3z"/>
		<path class="st4" d="M452.5,627.2c-0.6,0-1.9,1.2-1.9,1.7c-0.1,0-0.1-0.1-0.2,0c-0.8,0-2.7,2-1.6,2c0.6,0,1.9-1.2,1.9-1.7
			c0.1,0,0.1,0.1,0.2,0C451.7,629.2,453.6,627.2,452.5,627.2z"/>
		<path class="st4" d="M458.8,631.9c-0.8,0-2.7,2-1.6,2C458,633.8,459.9,631.9,458.8,631.9z"/>
		<path class="st4" d="M463.9,628c-0.8,0-2.7,2-1.6,2C463.1,630,465,628,463.9,628z"/>
		<path class="st4" d="M468.5,630.2c-0.8,0-2.7,2-1.6,2C467.8,632.2,469.6,630.2,468.5,630.2z"/>
		<path class="st4" d="M459.2,627.2c-0.8,0-2.7,2-1.6,2C458.5,629.2,460.3,627.2,459.2,627.2z"/>
		<path class="st4" d="M456.3,628.9c-0.8,0-2.7,2-1.6,2C455.5,630.9,457.4,628.9,456.3,628.9z"/>
		<path class="st4" d="M472.3,630.6c-0.8,0-2.7,2-1.6,2C471.6,632.6,473.4,630.6,472.3,630.6z"/>
		<path class="st4" d="M482.1,628c-0.8,0-2.7,2-1.6,2C481.3,630,483.2,628,482.1,628z"/>
		<path class="st4" d="M485,630.6c-0.8,0-2.7,2-1.6,2C484.2,632.6,486.1,630.6,485,630.6z"/>
		<path class="st4" d="M489.3,628.9c-0.8,0-2.7,2-1.6,2C488.5,630.9,490.4,628.9,489.3,628.9z"/>
		<path class="st4" d="M503.2,630.2c-0.8,0-2.7,2-1.6,2C502.4,632.2,504.3,630.2,503.2,630.2z"/>
		<path class="st4" d="M512.5,627.2c-0.8,0-2.7,2-1.6,2C511.7,629.2,513.6,627.2,512.5,627.2z"/>
		<path class="st4" d="M510.8,632.3c-0.8,0-2.7,2-1.6,2C510,634.3,511.9,632.3,510.8,632.3z"/>
		<path class="st4" d="M518.9,626.8c-0.8,0-2.7,2-1.6,2C518.1,628.8,520,626.8,518.9,626.8z"/>
		<path class="st4" d="M518,631c-0.8,0-2.7,2-1.6,2C517.2,633,519.1,631,518,631z"/>
		<path class="st4" d="M515,628.5c-0.8,0-2.7,2-1.6,2C514.3,630.5,516.1,628.5,515,628.5z"/>
		<path class="st4" d="M507,631c-0.8,0-2.7,2-1.6,2C506.2,633,508.1,631,507,631z"/>
		<path class="st4" d="M528.6,630.6c-0.8,0-2.7,2-1.6,2C527.8,632.6,529.7,630.6,528.6,630.6z"/>
		<g>
			<path class="st4" d="M535.3,626.4c-0.8,0-2.7,2-1.6,2C534.6,628.3,536.4,626.4,535.3,626.4z"/>
			<path class="st4" d="M533.7,625.9c-0.8,0-2.7,2-1.6,2C532.9,627.9,534.8,625.9,533.7,625.9z"/>
		</g>
		<path class="st4" d="M526.9,627.6c-0.8,0-2.7,2-1.6,2C526.1,629.6,528,627.6,526.9,627.6z"/>
		<path class="st4" d="M542.1,626.8c-0.8,0-2.7,2-1.6,2C541.3,628.8,543.2,626.8,542.1,626.8z"/>
		<path class="st4" d="M544.2,624.2c-0.8,0-2.7,2-1.6,2C543.4,626.2,545.3,624.2,544.2,624.2z"/>
		<path class="st4" d="M556.9,623c-0.8,0-2.7,2-1.6,2C556.1,625,558,623,556.9,623z"/>
		<path class="st4" d="M556.5,627.2c-0.8,0-2.7,2-1.6,2C555.7,629.2,557.6,627.2,556.5,627.2z"/>
		<path class="st4" d="M562.4,623.5l-0.9-0.8c-0.2-0.1-0.4-0.2-0.6-0.1c-0.3,0.1-0.6,0.3-0.9,0.5c-0.3,0.2-0.5,0.5-0.7,0.8
			c-0.1,0.2-0.2,0.4-0.1,0.6l0.9,0.8c0.2,0.1,0.4,0.2,0.6,0.1c0.3-0.1,0.6-0.3,0.9-0.5c0.3-0.2,0.5-0.5,0.7-0.8
			C562.4,623.9,562.5,623.6,562.4,623.5z"/>
		<path class="st4" d="M568.7,623.8c-0.8,0-2.7,2-1.6,2C568,625.8,569.8,623.8,568.7,623.8z"/>
		<path class="st4" d="M571.3,615.8c-0.8,0-2.7,2-1.6,2C570.5,617.8,572.4,615.8,571.3,615.8z"/>
		<path class="st4" d="M574.2,620.9c-0.4,0-1,0.5-1.4,0.9c0.1-0.3,0.1-0.5-0.3-0.5c-0.8,0-2.7,2-1.6,2c0.4,0,1-0.5,1.4-0.9
			c-0.1,0.3-0.1,0.5,0.3,0.5C573.4,622.9,575.3,620.9,574.2,620.9z"/>
		<path class="st4" d="M574.2,615.4c-0.8,0-2.7,2-1.6,2C573.4,617.4,575.3,615.4,574.2,615.4z"/>
		<path class="st4" d="M573,612c-0.8,0-2.7,2-1.6,2C572.2,614,574.1,612,573,612z"/>
		<path class="st4" d="M558.6,608.6c-0.8,0-2.7,2-1.6,2C557.8,610.6,559.7,608.6,558.6,608.6z"/>
		<g id="cat">
			<path class="st5" d="M395.6,624c-0.1-4.1-4.4-7.7-10.4-8.8c-1-0.2-1.9,0.5-2.1,1.4s0.5,1.9,1.4,2.1l0,0c4.6,0.8,7.4,3.4,7.5,5.4
				c0.1,2.1-3,4.1-4.5,5.1c-1.5,0.9-3.2,1.7-4.9,2.1c0.2-0.4,0.5-0.8,0.6-1.2c1.8-5.1-3.1-14.4-10.3-16.3c-4.2-1.1-10.2,0-12.4,3.7
				c-0.8,1.4-1.1,3.1-2.3,4.3c-0.5-1-1.2-2-2.1-2.7l3.9-2.6c0.1-0.1,0.1-0.2,0-0.2c-0.1-0.1-0.2-0.1-0.2,0l-3.9,2.7
				c-0.1,0-0.1-0.1-0.2-0.1l3.7-4.8c0.1-0.1,0.1-0.2,0-0.3s-0.2-0.1-0.3,0c0,0,0,0,0,0l-3.7,4.8c-0.1,0-0.1-0.1-0.2-0.1l1.9-5
				c0-0.1,0-0.2-0.1-0.2c-0.1,0-0.2,0-0.2,0.1l-1.9,5c-1.1-0.6-2.3-0.9-3.6-0.9c-0.4,0-0.8,0-1.3,0.1l-5.4-4.1l0.6,6.9
				c-0.3,0.3-0.5,0.6-0.7,1l-6.5,0.3l5.8,5.7c0.9,3.2,3.8,5.5,7.2,5.6c4.6,5.2,17.8,5.9,25.8,2.7c4.4,0.2,8.7-0.9,12.4-3.2
				C391.5,630.9,395.7,628.2,395.6,624z"/>
			<path class="st6" d="M360.5,629.6c-1.3-0.4-6.1,1.5-5.8,2.7c0.2,0.8,2.5,0.8,2.6,0.8c0.3,0,2.4,0,3.3-1.5
				c0.3-0.4,0.6-1.3,0.3-1.8C360.8,629.7,360.7,629.6,360.5,629.6z"/>
			<path class="st6" d="M365.2,622.1c-0.4-0.1-4.4-0.6-4.8,0.4c-0.2,0.6,0.8,1.5,2.5,2.8c1.8,1.5,2.3,1.5,2.5,2.2
				c0.6,1.9-2.7,3.7-2.2,4.8c0.4,1,3.7,1.2,5.6-0.4c2.5-2.2,1.8-7.4-0.6-9.1C367.4,622.4,366.7,622.3,365.2,622.1z"/>
			<path class="st6" d="M374.9,620.2c-2.1-4.1-5.2-1.4-5.3-1.2c-0.5,0.7,2,2.1,2.6,5.3c0.5,2.6-0.8,3.8,0.1,4.9
				c1.1,1.3,4.2,1.1,6.1-0.4c1.9-1.5,2.7-4.4,1.7-6.2C379.8,622.2,377,624.4,374.9,620.2z"/>
		</g>
	</g>
	<g id="Warstwa_2_00000015330302293532949690000016582724691478726272_">
		<path class="st7" d="M468.6,598c-4.6,1.8-8.6,16.8-7.1,18.7c1.6,2,11.3-8.5,11.4-14.6C472.9,599,470.7,597.1,468.6,598z"/>
		
			<linearGradient id="SVGID_00000150088935148628512500000005512777265452755084_" gradientUnits="userSpaceOnUse" x1="541.5013" y1="166.3731" x2="495.0773" y2="246.7819" gradientTransform="matrix(1 0 0 -1 0 758)">
			<stop  offset="0" style="stop-color:#004D3C"/>
			<stop  offset="0.449" style="stop-color:#00775B"/>
			<stop  offset="0.986" style="stop-color:#009377"/>
		</linearGradient>
		<path style="fill:url(#SVGID_00000150088935148628512500000005512777265452755084_);" d="M532.2,498.8L532.2,498.8
			c-5.8-3-16.7-1.9-21.2,4.7c-3.6,5.3-1.6,12.2-1.1,13.9c1,3.3,3.7,9.3,7.7,11l-8.2,16.6c-4.1-1.9-9.8-2.6-16.9-3.4
			c-10.8-1.2-16.1-1.8-19.2,1.4c-6.1,6.5,4.6,19-2.1,34.2c-1.9,4.2-3.9,6.1-4.6,7.6c-1.1,1.5-1.8,3.1-2.2,4.9
			c-1.3,6.6,3.9,12.3,5.3,13.9c12.3,13.5,38.5,10.6,39.5,6.1c0.8-3.1,10-9.1,0-12.4c-5.4-1.7-6.8-4.3-9.3-8.3c0-0.1-1-4.2-1.1-4.3
			c8.9-0.2-0.8,1,7.5-7.8c2.9-3.1,5.2-6.7,7-10.5l28.6,8.4l29.9-68L532.2,498.8z"/>
		<path class="st9" d="M524.4,593.7l-27.2,1.4c-11-1.6-16.2-5.3-17.5-8l-9.7-9.6c0.7-1.6,3.2-2.6,5.9-2.5l36.5,2.1L524.4,593.7z"/>
		<path class="st7" d="M491.7,609.7c-3.9,3-3.7,18.5-1.7,19.9c2.1,1.4,8.6-11.2,7-17.1C496.1,609.5,493.5,608.3,491.7,609.7z"/>
		<path class="st7" d="M530,599.3c-2.1,5.3,6,24.6,8.5,25.5c2.7,1,2.2-17.4-2.3-24.1C534,597.3,530.9,596.8,530,599.3z"/>
		<path class="st10" d="M467.7,574c2.2-0.3,4.4,0.7,4.7,2.2c0.4,1.3-1,2.4-5.5,9c-2.2,3.2-2.7,4.2-3.1,5.5c-0.7,2.8,0.2,3.7-0.7,4.7
			c-1.8,1.8-7.8,0.4-11.9-1.4c-4.8-2.2-5.6-4.4-9.9-4.5c-2.2,0-3.2,0.5-4.3-0.1c-2.5-1.4-2.7-6.3-0.1-8.8c3.2-3,10.5-2.1,14.2,0.8
			c2.2,1.7,1.9,3.3,3.5,3.4C458.4,584.8,461.9,574.7,467.7,574z"/>
		<path class="st11" d="M472.9,582.4c2.2-0.3,4.4,0.7,4.8,2.2c0.4,1.3-1,2.4-5.5,9c-2.2,3.2-2.7,4.2-3.1,5.5
			c-0.7,2.8,0.3,3.7-0.7,4.7c-1.8,1.8-7.9,0.4-11.9-1.4c-4.8-2.2-5.6-4.4-10-4.5c-2.2,0-3.2,0.5-4.4-0.1c-2.5-1.4-2.7-6.3-0.1-8.8
			c3.2-3,10.5-2.1,14.2,0.8c2.2,1.7,1.9,3.3,3.5,3.4C463.6,593.2,467,583.2,472.9,582.4z"/>
		<path class="st12" d="M492.4,561.1c-1.3-2-2.8-4.6-5.8-5.3c-2.7-0.7-5.4,0.5-7.2,1.6c-6,3.3-15.2,10.9-18.4,17.7
			c0,0-0.1,0-0.1-0.1c-1.3-0.8-2.7-0.1-2.8,0.9c-0.9,0.1-1.8,0.8-1.5,1.7c0.6,2.4,2.2,4.4,4.4,5.5c0.5,0.7,1.5,2,3.1,2.4
			c6.6,1.5,13.2-14.8,18.7-13.4c2.4,0.6,1.8,4,6.8,10.7c2.8,3.8,5.6,7.6,8.6,7.4c3.4-0.1,6.6-5.2,6.8-9.9
			C505.1,575,501.3,574.9,492.4,561.1z"/>
		<path d="M521.5,521.7c4.6-0.8,8.8,4.4,10.5,6.4c4.8,5.9,6,12.6,6.7,17c1,6,1.7,9.9-0.1,13.8c-2.9,6.3-11,10.1-16.7,7.6
			c-10.5-4.5-12.7-30-5.9-40.6C516.9,524.8,518.6,522.2,521.5,521.7z"/>
		<path class="st13" d="M516.9,585.1c0.4-6.2-4-6.2-13.7-21.9c-1.4-2.2-3.1-5.2-6.4-6c-3.1-0.7-6.1,0.8-8.2,2
			c-7.5,4.4-19.5,14.6-22.2,23l-1.1-0.4c-1.3-0.5-3.2,0.5-2.8,1.6c0.3,0.7,0.6,1.4,1.1,2.1c0,0-0.1,0-0.1,0c-1.7-0.3-3,1.5-1.8,2.5
			l0.2,0.1c-0.5,0.6-0.4,1.5,0.5,2.1c1.3,0.9,5.2,3.7,7.8,3.7l2.1,1.2c1.1,0.6,2.6,0.4,3.1-0.6c0.2-0.3,0.3-0.7,0.3-1.1
			c0.1,0,0.1,0,0.2,0c1.5,0.1,2.7-1,2.1-2.2c-0.3-0.6-0.7-1.3-1.1-1.9c5.4-4.8,10.7-14.2,15.1-13.2c2.7,0.6,2,4.5,7.5,12.2
			c3.1,4.3,6.1,8.6,9.6,8.4C512.9,596.4,516.6,590.5,516.9,585.1z"/>
		<g>
			<polygon class="st14" points="514.4,556 495.6,561.8 484.2,521.9 488.5,508.9 			"/>
			<polygon class="st5" points="512.9,554.5 497.7,559.6 485.1,523.7 492.8,507.3 			"/>
			<polygon class="st5" points="513.9,554.4 498.7,559.5 486.1,523.6 493.8,507.2 			"/>
			<polygon class="st5" points="515.6,554.2 500.5,559.3 487.8,523.4 495.6,507 			"/>
			<polygon class="st15" points="521.1,554 500.8,560 486.4,524.9 520.5,508.1 			"/>
			<polygon class="st15" points="522.8,555.1 502.5,561.1 488.1,526 522.2,509.2 			"/>
			<polygon class="st15" points="523.9,556.1 503.6,562.1 489.2,527 523.3,510.2 			"/>
			<polygon class="st15" points="524.9,556.8 504.6,562.8 490.2,527.7 524.3,510.9 			"/>
			<path class="st14" d="M496.9,523.9c-4.3,1.3-9.3,2.3-10.5,1.1c-0.7-0.8-0.9-1.9-0.5-3.2l-1.8,0.2l9.3,38.7
				c0.6,2.6,2.7,4.6,5.3,5.6l0.2,0.9l3.7-0.4l3.6-0.4l20.4-2l-1.6-50.3L496.9,523.9z"/>
			<line class="st16" x1="491.8" y1="525.7" x2="499.6" y2="566.9"/>
		</g>
		
			<linearGradient id="SVGID_00000018239542830583342050000002097943847883486878_" gradientUnits="userSpaceOnUse" x1="488.5471" y1="199.4624" x2="575.0499" y2="199.4624" gradientTransform="matrix(1 0 0 -1 0 758)">
			<stop  offset="0" style="stop-color:#002E35"/>
			<stop  offset="0.559" style="stop-color:#004E3D"/>
			<stop  offset="1" style="stop-color:#009377"/>
		</linearGradient>
		<path style="fill:url(#SVGID_00000018239542830583342050000002097943847883486878_);" d="M573.2,521.1L573.2,521.1
			c2.1-5.4,2.7-10.7,0.2-13.9c-4.8-6.2-22.5-6.1-28.9,2.9c-4.4,6.2-1.9,14.1-1.3,16.1c0.5,1.5,1.1,3,1.8,4.5l-20.9,28.6
			c-1.2-0.1-2.5-0.3-3.8-0.4c-13-1.4-19.6-2.1-23.3,1.6c-7.4,7.5,5.6,22-2.6,39.6c-3.1,6.7-6.8,8.4-5.6,10.7
			c3,6.1,32.3,5.3,48.4-11.1c4.3-4.5,7.7-9.8,9.9-15.6l0,0l25.7-61.7C572.9,521.9,573.1,521.5,573.2,521.1L573.2,521.1z"/>
		<path class="st18" d="M501,537c0.1-0.8-0.4-2.1-1.1-3.6c-0.7-1.5-1-1.7-1.3-1.7c-0.4,0-0.7,0.6-0.9,0.9c-0.1,0.4-0.1,0.9,0,1.3
			c-1-1-1-1-3-1.9c-1.2-0.5-3.2-0.8-4,0.1c-0.9,1-0.2,2.9-0.2,3.1c1,2.8,4.7,4.8,6.7,5.8c0.9,0.4,1.6,1,2,1.8
			c0.3,0.7,0.2,1.1,0.5,1.3c0.9,0.8,4.4-0.8,4.4-2.4C504.1,541,502.6,538.8,501,537z"/>
		<path d="M529.7,533.5c-0.6-0.7-1.5-1.9-2.8-1.8c-2.8,0.2-6,6.8-9.3,13.8c-0.2,0.7-0.6,1.2-1.2,1.7c-2.3,1.7-7.1-1.2-10.2-4.7
			c-0.4-0.5-0.8-1-1.2-1.4c0-0.1,0-0.1,0-0.2c-0.4-1.2-1.5-3.5-2.7-3.7c-1-0.2-2.4,1.6-3,2.3c-0.7,0.8-1.3,2-0.8,3.2
			c0.4,0.9,1.2,1.6,1.7,2.3l0.5,0.6c0.6,3.3,3.2,6.6,4.5,8.2c2.2,2.8,5.3,6.7,10.6,7.4c3.4,0.6,6.9-0.5,9.4-2.8
			c3.2-2.9,4.1-7,5.1-11.1C531.1,544,532.6,537.3,529.7,533.5z"/>
		<path class="st19" d="M512.9,510.7c-0.1-0.4-0.5-0.5-0.9-0.4c0-0.1-0.1-0.3-0.2-0.4c-0.1-0.1-0.2-0.1-0.3-0.1
			c-0.4,0.1-0.8,0.3-1.1,0.5c-0.3-0.1-0.6-0.2-0.9-0.3c-0.1-0.1-0.1-0.3-0.2-0.4c-0.1-0.3-0.6-0.1-1.1,0.3c-0.1,0-0.2,0-0.3,0
			c-0.1-0.1-0.2-0.1-0.4-0.2c-0.2-0.1-0.5,0-0.7,0.1l-0.4,0.2c-0.1,0-0.2,0-0.3,0c0-0.3-0.1-0.5-0.2-0.7c-0.2-0.4-1.1,0.2-1.5,0.5
			l0.1-0.6c0.1-0.3-0.5-0.2-0.8-0.1c-0.4,0.2-0.8,0.5-1,0.9c-0.1,0.3-0.2,0.6-0.3,0.8c-0.6,0-1.2,0.1-1.8,0.1c-0.4,0-2,1.1-1.4,1.2
			c0.3,0.1,0.5,0.1,0.8,0.2c-0.3,0.2-0.6,0.5-0.9,0.8c-0.5,0.1-0.9,0.3-1.4,0.5c-0.4,0.1-0.8,0.4-1.1,0.8c-0.1,0.2-0.3,0.5,0.2,0.4
			l0.3-0.1c-0.1,0.1-0.1,0.2-0.2,0.3c0,0,0,0.1,0,0.1l-0.9,0.6c-0.3,0.2-1.4,1.3-0.3,0.9c0.5-0.2,1-0.3,1.5-0.4
			c-0.1,0.1,0,0.2,0.1,0.2c0,0,0.1,0,0.1,0c0,0.1,0,0.2,0.2,0.2c0.8,0.1-0.9,1.4,0.6,1.4c0.4,0,0.7-0.1,1-0.3
			c0.2,0.2,0.4,0.3,0.6,0.5l13.1-6.4c-0.1-0.1-0.2-0.2-0.3-0.3C512.8,511.4,512.9,511.1,512.9,510.7z"/>
		<g id="blobGreen">
			
				<image style="overflow:visible;opacity:0.65;enable-background:new    ;" width="150" height="98" xlink:href="37F1182B.png"  transform="matrix(0.4911 0 0 0.4911 260.8061 597.4654)">
			</image>
			
				<linearGradient id="SVGID_00000127723779785958119480000011432050784330004634_" gradientUnits="userSpaceOnUse" x1="272.8253" y1="145.0215" x2="322.3243" y2="145.0215" gradientTransform="matrix(1 0 0 -1 0 758)">
				<stop  offset="0" style="stop-color:#004D3C"/>
				<stop  offset="1" style="stop-color:#00775B"/>
			</linearGradient>
			
				<ellipse style="fill:url(#SVGID_00000127723779785958119480000011432050784330004634_);" cx="297.6" cy="613" rx="24.7" ry="12"/>
		</g>
		<g id="blobBlue">
			
				<image style="overflow:visible;opacity:0.65;enable-background:new    ;" width="128" height="92" xlink:href="37F1182E.png"  transform="matrix(0.4911 0 0 0.4911 389.9552 658.8481)">
			</image>
			
				<linearGradient id="SVGID_00000019656179356577592090000014278158305596555967_" gradientUnits="userSpaceOnUse" x1="401.8123" y1="84.9951" x2="440.5532" y2="84.9951" gradientTransform="matrix(1 0 0 -1 0 758)">
				<stop  offset="0" style="stop-color:#001836"/>
				<stop  offset="0.163" style="stop-color:#022043"/>
				<stop  offset="0.462" style="stop-color:#083464"/>
				<stop  offset="0.862" style="stop-color:#12549A"/>
				<stop  offset="1" style="stop-color:#1660AE"/>
			</linearGradient>
			
				<ellipse style="fill:url(#SVGID_00000019656179356577592090000014278158305596555967_);" cx="421.2" cy="673" rx="19.4" ry="10.7"/>
		</g>
	</g>
	<g id="Warstwa_3">
		
			<linearGradient id="lamp2_00000163066167034711136310000017133688672940435620_" gradientUnits="userSpaceOnUse" x1="567.744" y1="270.9072" x2="657.6479" y2="219.0014" gradientTransform="matrix(1.114 -9.600000e-02 -8.800000e-02 -1.02 -88.693 856.915)">
			<stop  offset="0" style="stop-color:#B2B2B2"/>
			<stop  offset="1" style="stop-color:#000000"/>
		</linearGradient>
		<path id="lamp2" style="fill:url(#lamp2_00000163066167034711136310000017133688672940435620_);" d="M600.8,530.8
			c-0.2-3.1-3-5.5-6.1-5.2c-0.5,0-0.9,0.1-1.4,0.3L548,475.7c-0.5-0.6-1.4-0.6-1.9-0.1c0,0,0,0,0,0c-0.6,0.5-0.6,1.4-0.1,2l45,49.8
			c-2.1,2.4-1.9,6.1,0.5,8.2c0.5,0.5,1.1,0.8,1.7,1.1l-6.4,63.2c-0.3,0-0.7,0-1,0c-7.9,0.4-16.3,4.8-16,8.1
			c0.4,3.7,11.4,5.1,12.7,5.3c9.6,1.2,21.8-1.1,22.4-4.8c0.4-3.1-7.1-7.6-15.3-8.5l6.4-63C599,536.5,601.1,533.8,600.8,530.8z"/>
		<g id="lamp">
			
				<linearGradient id="SVGID_00000003105001847048247000000003519366210302965438_" gradientUnits="userSpaceOnUse" x1="523.587" y1="274.1465" x2="547.4714" y2="274.1465" gradientTransform="matrix(1 0 0 -1 0 758)">
				<stop  offset="0" style="stop-color:#B2B2B2"/>
				<stop  offset="1" style="stop-color:#000000"/>
			</linearGradient>
			<path style="fill:url(#SVGID_00000003105001847048247000000003519366210302965438_);" d="M545.6,470.8c-2.3-1.8-5.7-1.1-7.7,1.4
				c-0.6,0.8-1.1,1.8-1.2,2.8l-10.8,7.5c-0.6,0.3-1.1,0.6-1.5,1.1c-2.1,2.7-0.1,7.7,4.4,11.2s9.9,4.2,12,1.6
				c0.5-0.6,0.8-1.4,0.8-2.2l4.1-15.1c0.1-0.1,0.3-0.3,0.4-0.4C548.1,476,547.9,472.5,545.6,470.8z"/>
			
				<linearGradient id="SVGID_00000121975258461179061380000008448935297542972310_" gradientUnits="userSpaceOnUse" x1="447.6345" y1="183.8569" x2="571.3626" y2="237.2246" gradientTransform="matrix(0.9932 -0.1161 -0.1161 -0.9932 22.675 836.8167)">
				<stop  offset="0.532" style="stop-color:#F6FFB9;stop-opacity:0"/>
				<stop  offset="1" style="stop-color:#F6FFB9"/>
			</linearGradient>
			<polygon style="fill:url(#SVGID_00000121975258461179061380000008448935297542972310_);" points="524.6,485.3 411.1,541.9 
				508.9,646.3 540,495.7 			"/>
			
				<ellipse transform="matrix(0.6149 -0.7886 0.7886 0.6149 -181.2572 608.7285)" class="st25" cx="532.6" cy="489.9" rx="5.5" ry="9.4"/>
			<path class="st26" d="M535.1,490.8c0.3,2-1.2,3.9-3.2,4.1c-2,0.3-3.9-1.2-4.1-3.2c-0.2-2,1.1-3.8,3.1-4.1c0-0.5,0.1-1,0.2-1.5
				c-2.8,0.2-4.9,2.6-4.7,5.5c0.2,2.8,2.6,4.9,5.5,4.7s4.9-2.6,4.7-5.5c0-0.3-0.1-0.7-0.2-1C536,490.2,535.6,490.5,535.1,490.8z"/>
			<path class="st26" d="M542,471.6c-0.8,0-2.7,2-1.6,2C541.2,473.6,543.1,471.6,542,471.6z"/>
			<g>
				<path class="st26" d="M545.2,473.6c-0.6,0.4-1.1,3.1-0.2,2.5C545.6,475.7,546.1,473,545.2,473.6z"/>
				<path class="st26" d="M543.6,472.5c-0.8,0.2-2.1,2.6-1,2.3C543.4,474.7,544.7,472.3,543.6,472.5z"/>
			</g>
		</g>
		<g>
			<path class="st27" d="M539.7,577.8c0,0-7.2,54.3-1.1,54.8c6,0.4,7-53.7,7-53.7L539.7,577.8z"/>
			<path class="st27" d="M565.9,580.2c0,0,1.9,54.7,8.1,54.3c6-0.4-2-54-2-54L565.9,580.2z"/>
			<path class="st27" d="M553.7,570c0,0-2.3,54.7,3.9,54.7c6,0,2.1-54,2.1-54L553.7,570z"/>
			<ellipse class="st27" cx="554.4" cy="575.4" rx="24.6" ry="9.9"/>
			<ellipse class="st6" cx="554.4" cy="573.5" rx="24.6" ry="9.9"/>
		</g>
		<g>
			<path class="st5" d="M561.7,565.7c-1-0.8-2.5-0.5-5,1v-1.2c0-1.5-2.8-2.7-6.3-2.7s-6.3,1.2-6.3,2.7v5.4c0,2,2.7,3.7,6.1,3.7h0.3
				c2.7,0,4.9-1,5.8-2.5c0.3,0,0.7,0.1,1,0.1c1.1,0,2.2-0.3,3.2-1c1.2-0.9,1.9-2.3,1.9-3.7C562.5,566.9,562.2,566.2,561.7,565.7z
				 M559.1,569.5c-0.7,0.5-1.6,0.7-2.4,0.5v-0.6c2.1-1.4,3.1-1.7,3.5-1.8C560.1,568.3,559.7,569,559.1,569.5L559.1,569.5z"/>
			<ellipse class="st19" cx="550.3" cy="566.3" rx="4.7" ry="2.7"/>
		</g>
		<path id="steam1" class="st28" d="M549.7,565.8c-1.2-0.5,3.6-10.7,0.7-20.2c-3.3-10.9-12.9-8.7-14.9-18.2
			c-1.5-7.6,2.8-18.4,8.4-22.9c6.8-5.5,13,0.5,16.9-5.4c2.6-3.9,2.7-10.5,1.3-14.9c-2.4-7.5-8.8-6.7-16.7-12.2
			c-6.4-4.4-17.6-15.5-16.8-26.7c1.1-16.2,26.4-25.8,38.1-28.1c0.9-0.2,8.9-1.7,9.4,1c0.7,3.7-13.9,8.9-15.1,19.2
			c-1.4,11.7,15.1,23.9,19.6,27.3c8.7,6.4,13.1,6.2,19.2,14.4c3.8,5.1,8.5,11.3,7.5,17.9c-1.9,11.6-21.5,21.9-37.8,23.1
			c-5.7,0.4-11.5-0.3-13.6,4.4c-2,4.5,1.8,8.8,1.7,18.6C557.5,555.5,550.9,566.4,549.7,565.8z"/>
		<path id="steam2" class="st28" d="M611.1,506.4c-1.2,1.1-8,7.4-17.1,5.2c-9.3-2.2-16.4-12.2-15.6-19.4c1-8.5,12.5-7.3,21.2-19
			c6.1-8.2,10.1-21.6,4-28.1c-6.7-7.1-19.5,0.5-29.5-7.1c-9.8-7.4-10-23.9-5.2-34.5c5-11,17.9-21.4,34.5-19.8
			c17.2,1.7,33.5,16,32.1,23.3c-0.6,3.2-4.5,3.6-21.7,11.4c-16,7.3-17.2,9-16.9,10.2c1,4.9,21.3,2,32.6,13.3
			c9.6,9.6,10.7,27.7,2.5,34.2c-6.9,5.3-17,0-27.7,7.6c-4.6,3.2-7.5,7.6-6.6,8.6c1.6,1.8,13.9-7.9,18.3-4.7
			C619.4,490.1,617.6,500.4,611.1,506.4z"/>
		<path id="steam3" class="st29" d="M583.2,417.8c-13.3-3.1-34.9-0.8-41.7,14.1c-5.3,11.5-0.5,27.6,9,34.4c9.3,6.6,18.6,1,31,10.1
			c2.6,1.9,10,7.3,9,12.4c-1.2,6.3-13.9,5-23.1,16.1c-4,4.8-6.7,11.2-5.4,12.4c1.4,1.3,6.8-3.8,15.5-9.6c19.4-12.8,27-9.9,34.4-18.9
			c7.8-9.6,6.8-22.4,6.5-27.1C617,443.5,604.1,422.7,583.2,417.8z"/>
	</g>
</g>
<ellipse class="st30" cx="601.6" cy="97.5" rx="100.3" ry="61.5"/>
<ellipse class="st30" cx="565.9" cy="249.1" rx="116.8" ry="71.6"/>
<ellipse class="st30" cx="427.9" cy="338.1" rx="116.4" ry="71.4"/>
<ellipse class="st30" cx="669.8" cy="311.9" rx="116.8" ry="71.6"/>
<ellipse class="st30" cx="265.3" cy="258.3" rx="125.6" ry="77"/>
<path class="st5" d="M486.1,160.1c0.5,4.2,2.9,22.5-19.5,29.6c-13.6,4.3-35.7,4.3-41.6-0.1c-1.9-1.4-2.6-3.6-1-4.6
	c2.9-2.1,11.8,1.5,19.4,0.6c10.5-1.3,17.7-11,11.9-18.1c-7.1-8.8-28.9-7.2-39.9-17.5c-6.5-6-6.6-13.6-0.7-18.5
	c8.7-7.2,29.4-7.8,43.8-3.6C482.9,134.9,485.4,154.5,486.1,160.1z"/>
<path class="st5" d="M157.5,347.7c1.7,4.9,9.3,26.5,37.5,22.7c17.1-2.3,41-14,44.9-22c1.2-2.5,0.8-5.3-1.5-5.7
	c-4.3-0.8-11.9,7.9-20.8,10.8c-12.1,4.1-25.3-2.9-22.9-13.9c2.9-13.5,27.3-23.2,33.6-40.4c3.7-10.1-0.4-18.7-9.5-21
	c-13.4-3.5-36.2,6.8-49.4,19C147.1,317.9,155.2,341.1,157.5,347.7z"/>
<path class="st5" d="M692.7,114.2c3.6,3.7,19.1,19.8,12.9,39.5c-3.8,12-15.4,24.6-22,23.8c-2.1-0.3-4.1-1.9-4.2-3.8
	c-0.1-3.7,7.4-5.4,10.7-10.7c4.5-7.3,0.7-20.7-7.9-24.1c-10.6-4.3-20.9,9.8-34.7,6.3c-8.1-2-14.2-9.2-15-17.3
	c-1.1-11.9,9.4-24.3,20.2-28.6C671.2,92,688,109.3,692.7,114.2z"/>
<path class="st5" d="M324.5,357.2c-15.1,16-11.1,38.8-10,45c0.9,5.2,5.6,32,26,39c17.3,5.9,37.5-5.5,37-10c-0.6-4.6-23-3.1-24-9
	c-1.2-7,30.5-9.8,40-31c5.6-12.6,2.4-29.3-7-39C370.9,336.1,339.9,340.7,324.5,357.2z"/>
</svg>
